<svg xmlns="http://www.w3.org/2000/svg">
  <symbol id="three-dots" viewBox="0 0 27 7">
		<path
			d="M17 3.5C17 4.19223 16.7947 4.86892 16.4101 5.44449C16.0256 6.02007 15.4789 6.46867 14.8394 6.73357C14.1999 6.99848 13.4961 7.06779 12.8172 6.93275C12.1383 6.7977 11.5146 6.46435 11.0251 5.97487C10.5356 5.48539 10.2023 4.86175 10.0673 4.18281C9.93221 3.50388 10.0015 2.80015 10.2664 2.16061C10.5313 1.52107 10.9799 0.974441 11.5555 0.589856C12.1311 0.205271 12.8078 0 13.5 0C14.4272 0.00329397 15.3156 0.373101 15.9712 1.02877C16.6269 1.68443 16.9967 2.57275 17 3.5ZM3.5 0C2.80777 0 2.13108 0.205271 1.55551 0.589856C0.979934 0.974441 0.53133 1.52107 0.266423 2.16061C0.00151649 2.80015 -0.0677952 3.50388 0.0672531 4.18281C0.202301 4.86175 0.535644 5.48539 1.02513 5.97487C1.51461 6.46435 2.13825 6.7977 2.81719 6.93275C3.49612 7.06779 4.19985 6.99848 4.83939 6.73357C5.47894 6.46867 6.02556 6.02007 6.41015 5.44449C6.79473 4.86892 7 4.19223 7 3.5C6.99671 2.57275 6.6269 1.68443 5.97124 1.02877C5.31557 0.373101 4.42725 0.00329397 3.5 0ZM23.5 0C22.8078 0 22.1311 0.205271 21.5555 0.589856C20.9799 0.974441 20.5313 1.52107 20.2664 2.16061C20.0015 2.80015 19.9322 3.50388 20.0673 4.18281C20.2023 4.86175 20.5356 5.48539 21.0251 5.97487C21.5146 6.46435 22.1383 6.7977 22.8172 6.93275C23.4961 7.06779 24.1999 6.99848 24.8394 6.73357C25.4789 6.46867 26.0256 6.02007 26.4101 5.44449C26.7947 4.86892 27 4.19223 27 3.5C26.9967 2.57275 26.6269 1.68443 25.9712 1.02877C25.3156 0.373101 24.4272 0.00329397 23.5 0Z"
			fill="#14401D"
		/>
	</symbol>
	<symbol id="play" viewBox="0 0 22 26">
  	<path 
			d="M22 13.0009C21.9993 13.3448 21.9104 13.6828 21.7419 13.9826C21.5734 14.2824 21.3309 14.534 21.0375 14.7134L3.03751 25.7009C2.73768 25.8909 2.39141 25.9949 2.03651 26.0015C1.68161 26.0082 1.33171 25.9171 1.02501 25.7384C0.713773 25.5677 0.454317 25.3162 0.27394 25.0104C0.0935623 24.7047 -0.00106682 24.3559 9.07295e-06 24.0009V2.00094C-0.00106682 1.64594 0.0935623 1.29721 0.27394 0.991448C0.454317 0.685686 0.713773 0.434195 1.02501 0.263436C1.33171 0.0847349 1.68161 -0.00627672 2.03651 0.000336364C2.39141 0.00694945 2.73768 0.110933 3.03751 0.300936L21.0375 11.2884C21.3309 11.4679 21.5734 11.7195 21.7419 12.0193C21.9104 12.3191 21.9993 12.657 22 13.0009Z" 
			fill="#14401D" 
		/>
	</symbol>
  <symbol id="pause" viewBox="0 0 22 24">
		<path
			d="M22 2V22C22 22.5304 21.7893 23.0391 21.4142 23.4142C21.0391 23.7893 20.5304 24 20 24H15.5C14.9696 24 14.4609 23.7893 14.0858 23.4142C13.7107 23.0391 13.5 22.5304 13.5 22V2C13.5 1.46957 13.7107 0.960859 14.0858 0.585786C14.4609 0.210714 14.9696 0 15.5 0H20C20.5304 0 21.0391 0.210714 21.4142 0.585786C21.7893 0.960859 22 1.46957 22 2ZM6.5 0H2C1.46957 0 0.960859 0.210714 0.585786 0.585786C0.210714 0.960859 0 1.46957 0 2V22C0 22.5304 0.210714 23.0391 0.585786 23.4142C0.960859 23.7893 1.46957 24 2 24H6.5C7.03043 24 7.53914 23.7893 7.91421 23.4142C8.28929 23.0391 8.5 22.5304 8.5 22V2C8.5 1.46957 8.28929 0.960859 7.91421 0.585786C7.53914 0.210714 7.03043 0 6.5 0Z"
			fill="#14401D"
		/>
	</symbol>
  <symbol id="seek" viewBox="0 0 30 19">
		<path
			d="M29.15 9.17152C29.1515 9.50673 29.0688 9.83695 28.9093 10.1318C28.7499 10.4267 28.5189 10.6767 28.2375 10.859L17.0875 18.0215C16.7849 18.2176 16.435 18.3282 16.0747 18.3416C15.7144 18.3551 15.3572 18.2709 15.0408 18.098C14.7244 17.9251 14.4607 17.6699 14.2775 17.3594C14.0943 17.0488 13.9984 16.6946 14 16.334V11.009L3.08752 18.0215C2.78494 18.2176 2.43499 18.3282 2.0747 18.3416C1.71441 18.3551 1.35717 18.2709 1.0408 18.098C0.724431 17.9251 0.460685 17.6699 0.277472 17.3594C0.0942597 17.0488 -0.00160547 16.6946 2.03405e-05 16.334V2.00902C-0.00160547 1.64848 0.0942597 1.29421 0.277472 0.983684C0.460685 0.673162 0.724431 0.41794 1.0408 0.245024C1.35717 0.0721084 1.71441 -0.0120699 2.0747 0.00139567C2.43499 0.0148613 2.78494 0.12547 3.08752 0.321519L14 7.33402V2.00902C13.9984 1.64848 14.0943 1.29421 14.2775 0.983684C14.4607 0.673162 14.7244 0.41794 15.0408 0.245024C15.3572 0.0721084 15.7144 -0.0120699 16.0747 0.00139567C16.435 0.0148613 16.7849 0.12547 17.0875 0.321519L28.2375 7.48402C28.5189 7.66629 28.7499 7.91635 28.9093 8.21122C29.0688 8.50609 29.1515 8.8363 29.15 9.17152Z"
      fill="#14401D"
		/>
	</symbol>
  <symbol id="cup" viewBox="0 0 32 32">
		<path
			d="M10 7V3C10 2.73478 10.1054 2.48043 10.2929 2.29289C10.4804 2.10536 10.7348 2 11 2C11.2652 2 11.5196 2.10536 11.7071 2.29289C11.8946 2.48043 12 2.73478 12 3V7C12 7.26522 11.8946 7.51957 11.7071 7.70711C11.5196 7.89464 11.2652 8 11 8C10.7348 8 10.4804 7.89464 10.2929 7.70711C10.1054 7.51957 10 7.26522 10 7ZM15 8C15.2652 8 15.5196 7.89464 15.7071 7.70711C15.8946 7.51957 16 7.26522 16 7V3C16 2.73478 15.8946 2.48043 15.7071 2.29289C15.5196 2.10536 15.2652 2 15 2C14.7348 2 14.4804 2.10536 14.2929 2.29289C14.1054 2.48043 14 2.73478 14 3V7C14 7.26522 14.1054 7.51957 14.2929 7.70711C14.4804 7.89464 14.7348 8 15 8ZM19 8C19.2652 8 19.5196 7.89464 19.7071 7.70711C19.8946 7.51957 20 7.26522 20 7V3C20 2.73478 19.8946 2.48043 19.7071 2.29289C19.5196 2.10536 19.2652 2 19 2C18.7348 2 18.4804 2.10536 18.2929 2.29289C18.1054 2.48043 18 2.73478 18 3V7C18 7.26522 18.1054 7.51957 18.2929 7.70711C18.4804 7.89464 18.7348 8 19 8ZM31 15V16C30.9993 17.2715 30.5142 18.495 29.6434 19.4215C28.7726 20.3481 27.5815 20.908 26.3125 20.9875C25.6237 22.9139 24.4634 24.6372 22.9375 26H26C26.2652 26 26.5196 26.1054 26.7071 26.2929C26.8946 26.4804 27 26.7348 27 27C27 27.2652 26.8946 27.5196 26.7071 27.7071C26.5196 27.8946 26.2652 28 26 28H4C3.73478 28 3.48043 27.8946 3.29289 27.7071C3.10536 27.5196 3 27.2652 3 27C3 26.7348 3.10536 26.4804 3.29289 26.2929C3.48043 26.1054 3.73478 26 4 26H7.0625C5.78816 24.8718 4.76726 23.4865 4.06704 21.9352C3.36682 20.384 3.00316 18.702 3 17V11C3 10.7348 3.10536 10.4804 3.29289 10.2929C3.48043 10.1054 3.73478 10 4 10H26C27.3261 10 28.5979 10.5268 29.5355 11.4645C30.4732 12.4021 31 13.6739 31 15ZM25 12H5V17C5.00406 18.8772 5.53448 20.7157 6.53101 22.3066C7.52753 23.8975 8.95023 25.1771 10.6375 26H19.3625C20.6229 25.384 21.7402 24.5107 22.6423 23.4364C23.5445 22.362 24.2114 21.1105 24.6 19.7625C24.6139 19.7397 24.6225 19.7141 24.625 19.6875C24.8763 18.8139 25.0025 17.909 25 17V12ZM29 15C28.9993 14.3802 28.8066 13.7758 28.4485 13.27C28.0904 12.7641 27.5844 12.3816 27 12.175V17C27.0008 17.628 26.9506 18.2551 26.85 18.875C27.4705 18.6917 28.015 18.3127 28.4025 17.7946C28.79 17.2765 28.9996 16.647 29 16V15Z"
			fill="#14401D"
		/>
	</symbol>
</svg>
